<svg width="349" height="346" viewBox="0 0 349 346" fill="none" xmlns="http://www.w3.org/2000/svg">
<path d="M170.545 89.0973L151.853 0L125.559 5.45708C125.559 5.45708 129.466 24.5569 134.007 46.3852C141.188 81.3315 130.522 85.8441 110.352 56.3549L86.6979 21.8283L64.5219 36.8353L89.5491 73.3558C108.029 100.326 100.954 107.358 73.8147 88.9924L37.0657 64.1207L21.9648 86.1589L56.7074 109.666C86.3811 129.711 81.8403 140.31 46.6754 133.174C24.7105 128.766 5.49119 124.778 5.49119 124.778L0 150.909L89.7604 169.589C91.5556 125.933 126.72 90.8814 170.65 88.9924L170.545 89.0973Z" fill="#00D6B3"/>
<path d="M258.51 169.589L347.953 151.014L342.462 124.883C342.462 124.883 323.243 128.766 301.278 133.279C266.113 140.415 261.572 129.816 291.246 109.771L325.988 86.2639L310.888 64.2257L274.139 89.0974C246.999 107.463 239.924 100.431 258.404 73.4608L283.432 36.9403L261.255 21.9333L237.601 56.4598C217.431 85.9491 206.766 81.4365 213.946 46.4902C218.382 24.6618 222.394 5.56206 222.394 5.56206L196.1 0.10498L177.409 89.0974C221.444 90.7765 256.82 125.828 258.615 169.589H258.51Z" fill="#00D6B3"/>
<path d="M89.6545 176.411L0.210938 194.986L5.7022 221.117C5.7022 221.117 24.9214 217.234 46.8863 212.721C82.0512 205.585 86.5921 216.184 56.9184 236.229L22.1758 259.736L37.2767 281.774L74.0256 256.903C101.165 238.537 108.24 245.569 89.7601 272.539L64.7328 309.06L86.9089 324.067L110.563 289.54C130.733 260.051 141.399 264.564 134.218 299.51C129.783 321.338 125.77 340.438 125.77 340.438L152.064 345.895L170.756 256.903C126.72 255.224 91.3441 220.172 89.5489 176.411H89.6545Z" fill="#00D6B3"/>
<path d="M301.701 212.721C323.665 217.129 342.885 221.117 342.885 221.117L348.376 194.986L258.616 176.306C256.82 219.962 221.655 255.014 177.726 256.903L196.417 346L222.711 340.543C222.711 340.543 218.804 321.443 214.263 299.615C207.083 264.668 217.748 260.156 237.918 289.645L261.572 324.172L283.748 309.165L258.721 272.644C240.241 245.674 247.316 238.642 274.456 257.008L311.205 281.879L326.305 259.841L291.563 236.334C261.889 216.289 266.43 205.69 301.595 212.826L301.701 212.721Z" fill="#00D6B3"/>
</svg>
